<?xml version="1.0" encoding="UTF-8" standalone="no"?>
<!DOCTYPE svg PUBLIC "-//W3C//DTD SVG 1.1//EN"
 "http://www.w3.org/Graphics/SVG/1.1/DTD/svg11.dtd">
<!-- Generated by graphviz version 2.40.1 (20161225.0304)
 -->
<!-- Title: G Pages: 1 -->
<svg width="197pt" height="539pt"
 viewBox="0.00 0.00 197.33 539.40" xmlns="http://www.w3.org/2000/svg" xmlns:xlink="http://www.w3.org/1999/xlink">
<g id="graph0" class="graph" transform="scale(1 1) rotate(0) translate(4 535.4)">
<title>G</title>
<polygon fill="#ffffff" stroke="transparent" points="-4,4 -4,-535.4 193.3345,-535.4 193.3345,4 -4,4"/>
<!-- 0 -->
<!-- 1 -->
<g id="node2" class="node">
<title>1</title>
<polygon fill="none" stroke="#000000" points="144.5044,-458.6014 82.1646,-458.6014 82.1646,-399.7986 144.5044,-399.7986 144.5044,-458.6014"/>
<text text-anchor="middle" x="113.3345" y="-441.8" font-family="Times,serif" font-size="14.00" fill="#000000">S&#39;→.S</text>
<text text-anchor="middle" x="113.3345" y="-425" font-family="Times,serif" font-size="14.00" fill="#000000">S→.(S)S</text>
<text text-anchor="middle" x="113.3345" y="-408.2" font-family="Times,serif" font-size="14.00" fill="#000000">S→.</text>
</g>
<!-- 0&#45;&gt;1 -->
<g id="edge1" class="edge">
<title>0&#45;&gt;1</title>
<path fill="none" stroke="#000000" d="M113.3345,-495.1299C113.3345,-487.3987 113.3345,-478.0689 113.3345,-468.8922"/>
<polygon fill="#000000" stroke="#000000" points="116.8346,-468.6897 113.3345,-458.6897 109.8346,-468.6898 116.8346,-468.6897"/>
</g>
<!-- 3 -->
<g id="node3" class="node">
<title>3</title>
<polygon fill="none" stroke="#000000" points="95.5044,-347.4014 33.1646,-347.4014 33.1646,-288.5986 95.5044,-288.5986 95.5044,-347.4014"/>
<text text-anchor="middle" x="64.3345" y="-330.6" font-family="Times,serif" font-size="14.00" fill="#000000">S→(.S)S</text>
<text text-anchor="middle" x="64.3345" y="-313.8" font-family="Times,serif" font-size="14.00" fill="#000000">S→.(S)S</text>
<text text-anchor="middle" x="64.3345" y="-297" font-family="Times,serif" font-size="14.00" fill="#000000">S→.</text>
</g>
<!-- 1&#45;&gt;3 -->
<g id="edge2" class="edge">
<title>1&#45;&gt;3</title>
<path fill="none" stroke="#000000" d="M100.4603,-399.9835C94.6546,-386.8081 87.715,-371.0595 81.4769,-356.9027"/>
<polygon fill="#000000" stroke="#000000" points="84.5281,-355.1471 77.2928,-347.4074 78.1224,-357.9698 84.5281,-355.1471"/>
<text text-anchor="middle" x="94.6648" y="-369.4" font-family="Times,serif" font-size="14.00" fill="#000000">(</text>
</g>
<!-- 2 -->
<g id="node7" class="node">
<title>2</title>
<polygon fill="none" stroke="#000000" points="189.3345,-336 135.3345,-336 135.3345,-300 189.3345,-300 189.3345,-336"/>
<text text-anchor="middle" x="162.3345" y="-313.8" font-family="Times,serif" font-size="14.00" fill="#000000">S&#39;→S.</text>
</g>
<!-- 1&#45;&gt;2 -->
<g id="edge8" class="edge">
<title>1&#45;&gt;2</title>
<path fill="none" stroke="#000000" d="M126.2087,-399.9835C133.6515,-383.0929 142.9577,-361.9734 150.2606,-345.4003"/>
<polygon fill="#000000" stroke="#000000" points="153.4702,-346.7963 154.2997,-336.234 147.0645,-343.9736 153.4702,-346.7963"/>
<text text-anchor="middle" x="145.2258" y="-369.4" font-family="Times,serif" font-size="14.00" fill="#000000">S</text>
</g>
<!-- 3&#45;&gt;3 -->
<g id="edge3" class="edge">
<title>3&#45;&gt;3</title>
<path fill="none" stroke="#000000" d="M95.6488,-328.1225C105.7015,-328.0187 113.669,-324.6445 113.669,-318 113.669,-313.8472 110.5567,-310.9718 105.7682,-309.374"/>
<polygon fill="#000000" stroke="#000000" points="106.0533,-305.8781 95.6488,-307.8775 105.0292,-312.8028 106.0533,-305.8781"/>
<text text-anchor="middle" x="115.9993" y="-313.8" font-family="Times,serif" font-size="14.00" fill="#000000">(</text>
</g>
<!-- 4 -->
<g id="node4" class="node">
<title>4</title>
<polygon fill="none" stroke="#000000" points="62.5044,-236 .1646,-236 .1646,-200 62.5044,-200 62.5044,-236"/>
<text text-anchor="middle" x="31.3345" y="-213.8" font-family="Times,serif" font-size="14.00" fill="#000000">S→(S.)S</text>
</g>
<!-- 3&#45;&gt;4 -->
<g id="edge5" class="edge">
<title>3&#45;&gt;4</title>
<path fill="none" stroke="#000000" d="M54.6119,-288.5376C50.1577,-275.0401 44.906,-259.1258 40.5193,-245.8326"/>
<polygon fill="#000000" stroke="#000000" points="43.8184,-244.661 37.3608,-236.2616 37.171,-246.8547 43.8184,-244.661"/>
<text text-anchor="middle" x="52.2258" y="-258.2" font-family="Times,serif" font-size="14.00" fill="#000000">S</text>
</g>
<!-- 5 -->
<g id="node5" class="node">
<title>5</title>
<polygon fill="none" stroke="#000000" points="96.5044,-147.4014 34.1646,-147.4014 34.1646,-88.5986 96.5044,-88.5986 96.5044,-147.4014"/>
<text text-anchor="middle" x="65.3345" y="-130.6" font-family="Times,serif" font-size="14.00" fill="#000000">S→(S).S</text>
<text text-anchor="middle" x="65.3345" y="-113.8" font-family="Times,serif" font-size="14.00" fill="#000000">S→.(S)S</text>
<text text-anchor="middle" x="65.3345" y="-97" font-family="Times,serif" font-size="14.00" fill="#000000">S→.</text>
</g>
<!-- 4&#45;&gt;5 -->
<g id="edge6" class="edge">
<title>4&#45;&gt;5</title>
<path fill="none" stroke="#000000" d="M37.5706,-199.6585C41.6205,-187.7471 47.0548,-171.7637 52.0418,-157.0962"/>
<polygon fill="#000000" stroke="#000000" points="55.4949,-157.8126 55.4003,-147.2182 48.8675,-155.5592 55.4949,-157.8126"/>
<text text-anchor="middle" x="50.6648" y="-169.4" font-family="Times,serif" font-size="14.00" fill="#000000">)</text>
</g>
<!-- 5&#45;&gt;3 -->
<g id="edge4" class="edge">
<title>5&#45;&gt;3</title>
<path fill="none" stroke="#000000" d="M68.3695,-147.5751C70.4492,-171.4379 72.618,-205.8738 71.3345,-236 70.749,-249.7419 69.614,-264.744 68.4256,-278.1153"/>
<polygon fill="#000000" stroke="#000000" points="64.9071,-278.154 67.4705,-288.4341 71.8774,-278.7993 64.9071,-278.154"/>
<text text-anchor="middle" x="74.6648" y="-213.8" font-family="Times,serif" font-size="14.00" fill="#000000">(</text>
</g>
<!-- 6 -->
<g id="node6" class="node">
<title>6</title>
<polygon fill="none" stroke="#000000" points="96.5044,-36 34.1646,-36 34.1646,0 96.5044,0 96.5044,-36"/>
<text text-anchor="middle" x="65.3345" y="-13.8" font-family="Times,serif" font-size="14.00" fill="#000000">S→(S)S.</text>
</g>
<!-- 5&#45;&gt;6 -->
<g id="edge7" class="edge">
<title>5&#45;&gt;6</title>
<path fill="none" stroke="#000000" d="M65.3345,-88.5376C65.3345,-75.3047 65.3345,-59.749 65.3345,-46.6175"/>
<polygon fill="#000000" stroke="#000000" points="68.8346,-46.2615 65.3345,-36.2616 61.8346,-46.2616 68.8346,-46.2615"/>
<text text-anchor="middle" x="69.2258" y="-58.2" font-family="Times,serif" font-size="14.00" fill="#000000">S</text>
</g>
</g>
</svg>
