<?xml version="1.0" encoding="UTF-8" standalone="no"?>
<!DOCTYPE svg PUBLIC "-//W3C//DTD SVG 1.1//EN"
 "http://www.w3.org/Graphics/SVG/1.1/DTD/svg11.dtd">
<!-- Generated by graphviz version 2.40.1 (20161225.0304)
 -->
<!-- Title: G Pages: 1 -->
<svg width="443pt" height="417pt"
 viewBox="0.00 0.00 442.66 416.80" xmlns="http://www.w3.org/2000/svg" xmlns:xlink="http://www.w3.org/1999/xlink">
<g id="graph0" class="graph" transform="scale(1 1) rotate(0) translate(4 412.8)">
<title>G</title>
<polygon fill="#ffffff" stroke="transparent" points="-4,4 -4,-412.8 438.6648,-412.8 438.6648,4 -4,4"/>
<!-- 5 -->
<g id="node1" class="node">
<title>5</title>
<polygon fill="none" stroke="#000000" points="282.8182,-409.0014 201.4076,-409.0014 201.4076,-350.1986 282.8182,-350.1986 282.8182,-409.0014"/>
<text text-anchor="middle" x="242.1129" y="-392.2" font-family="Times,serif" font-size="14.00" fill="#000000">&#45;State 5&amp;6&#45;</text>
<text text-anchor="middle" x="242.1129" y="-375.4" font-family="Times,serif" font-size="14.00" fill="#000000">A→c., d/e</text>
<text text-anchor="middle" x="242.1129" y="-358.6" font-family="Times,serif" font-size="14.00" fill="#000000">B→c., d/e</text>
</g>
<!-- 100 -->
<!-- 1 -->
<g id="node3" class="node">
<title>1</title>
<polygon fill="none" stroke="#000000" points="138.7322,-297.5002 63.4936,-297.5002 63.4936,-188.8998 138.7322,-188.8998 138.7322,-297.5002"/>
<text text-anchor="middle" x="101.1129" y="-281" font-family="Times,serif" font-size="14.00" fill="#000000">&#45;State 1&#45;</text>
<text text-anchor="middle" x="101.1129" y="-264.2" font-family="Times,serif" font-size="14.00" fill="#000000">S&#39;→.S, $</text>
<text text-anchor="middle" x="101.1129" y="-247.4" font-family="Times,serif" font-size="14.00" fill="#000000">S→.aAd, $</text>
<text text-anchor="middle" x="101.1129" y="-230.6" font-family="Times,serif" font-size="14.00" fill="#000000">S→.aBe, $</text>
<text text-anchor="middle" x="101.1129" y="-213.8" font-family="Times,serif" font-size="14.00" fill="#000000">S→.bAe, $</text>
<text text-anchor="middle" x="101.1129" y="-197" font-family="Times,serif" font-size="14.00" fill="#000000">S→.bBd, $</text>
</g>
<!-- 100&#45;&gt;1 -->
<g id="edge1" class="edge">
<title>100&#45;&gt;1</title>
<path fill="none" stroke="#000000" d="M101.1129,-361.4871C101.1129,-347.6022 101.1129,-327.5442 101.1129,-307.8778"/>
<polygon fill="#000000" stroke="#000000" points="104.613,-307.664 101.1129,-297.664 97.613,-307.664 104.613,-307.664"/>
</g>
<!-- 2 -->
<g id="node4" class="node">
<title>2</title>
<polygon fill="none" stroke="#000000" points="64.3391,-135.8019 -.1133,-135.8019 -.1133,-94.5981 64.3391,-94.5981 64.3391,-135.8019"/>
<text text-anchor="middle" x="32.1129" y="-119.4" font-family="Times,serif" font-size="14.00" fill="#000000">&#45;State 2&#45;</text>
<text text-anchor="middle" x="32.1129" y="-102.6" font-family="Times,serif" font-size="14.00" fill="#000000">S&#39;→S., $</text>
</g>
<!-- 1&#45;&gt;2 -->
<g id="edge2" class="edge">
<title>1&#45;&gt;2</title>
<path fill="none" stroke="#000000" d="M71.6505,-188.5452C63.5744,-173.5634 55.122,-157.8835 48.1149,-144.8849"/>
<polygon fill="#000000" stroke="#000000" points="51.1203,-143.0839 43.2942,-135.9422 44.9585,-146.4055 51.1203,-143.0839"/>
<text text-anchor="middle" x="65.0042" y="-158.2" font-family="Times,serif" font-size="14.00" fill="#000000">S</text>
</g>
<!-- 3 -->
<g id="node5" class="node">
<title>3</title>
<polygon fill="none" stroke="#000000" points="342.7168,-289.2 267.509,-289.2 267.509,-197.2 342.7168,-197.2 342.7168,-289.2"/>
<text text-anchor="middle" x="305.1129" y="-272.6" font-family="Times,serif" font-size="14.00" fill="#000000">&#45;State 3&#45;</text>
<text text-anchor="middle" x="305.1129" y="-255.8" font-family="Times,serif" font-size="14.00" fill="#000000">S→a.Ad, $</text>
<text text-anchor="middle" x="305.1129" y="-239" font-family="Times,serif" font-size="14.00" fill="#000000">S→a.Be, $</text>
<text text-anchor="middle" x="305.1129" y="-222.2" font-family="Times,serif" font-size="14.00" fill="#000000">A→.c, d</text>
<text text-anchor="middle" x="305.1129" y="-205.4" font-family="Times,serif" font-size="14.00" fill="#000000">B→.c, e</text>
</g>
<!-- 1&#45;&gt;3 -->
<g id="edge3" class="edge">
<title>1&#45;&gt;3</title>
<path fill="none" stroke="#000000" d="M138.7622,-287.7232C152.2151,-300.4427 168.4355,-312.6711 186.0056,-319.4 197.2748,-323.7158 208.6983,-331.4983 259.1129,-297.6 259.8987,-297.0716 260.6787,-296.5262 261.4525,-295.9652"/>
<polygon fill="#000000" stroke="#000000" points="263.9406,-298.453 269.4889,-289.4271 259.523,-293.023 263.9406,-298.453"/>
<text text-anchor="middle" x="189.1129" y="-319.8" font-family="Times,serif" font-size="14.00" fill="#000000">a</text>
</g>
<!-- 4 -->
<g id="node6" class="node">
<title>4</title>
<polygon fill="none" stroke="#000000" points="249.7322,-289.2 174.4936,-289.2 174.4936,-197.2 249.7322,-197.2 249.7322,-289.2"/>
<text text-anchor="middle" x="212.1129" y="-272.6" font-family="Times,serif" font-size="14.00" fill="#000000">&#45;State 4&#45;</text>
<text text-anchor="middle" x="212.1129" y="-255.8" font-family="Times,serif" font-size="14.00" fill="#000000">S→b.Ae, $</text>
<text text-anchor="middle" x="212.1129" y="-239" font-family="Times,serif" font-size="14.00" fill="#000000">S→b.Bd, $</text>
<text text-anchor="middle" x="212.1129" y="-222.2" font-family="Times,serif" font-size="14.00" fill="#000000">A→.c, e</text>
<text text-anchor="middle" x="212.1129" y="-205.4" font-family="Times,serif" font-size="14.00" fill="#000000">B→.c, d</text>
</g>
<!-- 1&#45;&gt;4 -->
<g id="edge4" class="edge">
<title>1&#45;&gt;4</title>
<path fill="none" stroke="#000000" d="M138.6924,-243.2C146.8304,-243.2 155.5442,-243.2 164.023,-243.2"/>
<polygon fill="#000000" stroke="#000000" points="164.1944,-246.7001 174.1944,-243.2 164.1943,-239.7001 164.1944,-246.7001"/>
<text text-anchor="middle" x="156.6129" y="-250.4" font-family="Times,serif" font-size="14.00" fill="#000000">b</text>
</g>
<!-- 3&#45;&gt;5 -->
<g id="edge5" class="edge">
<title>3&#45;&gt;5</title>
<path fill="none" stroke="#000000" d="M283.8131,-289.3157C276.0213,-306.1856 267.296,-325.0765 259.8486,-341.2009"/>
<polygon fill="#000000" stroke="#000000" points="256.6437,-339.7927 255.628,-350.3388 262.9986,-342.728 256.6437,-339.7927"/>
<text text-anchor="middle" x="272.2202" y="-319.8" font-family="Times,serif" font-size="14.00" fill="#000000">c</text>
</g>
<!-- 7 -->
<g id="node7" class="node">
<title>7</title>
<polygon fill="none" stroke="#000000" points="434.7168,-135.8019 359.509,-135.8019 359.509,-94.5981 434.7168,-94.5981 434.7168,-135.8019"/>
<text text-anchor="middle" x="397.1129" y="-119.4" font-family="Times,serif" font-size="14.00" fill="#000000">&#45;State 7&#45;</text>
<text text-anchor="middle" x="397.1129" y="-102.6" font-family="Times,serif" font-size="14.00" fill="#000000">S→aA.d, $</text>
</g>
<!-- 3&#45;&gt;7 -->
<g id="edge11" class="edge">
<title>3&#45;&gt;7</title>
<path fill="none" stroke="#000000" d="M338.327,-196.9891C351.0078,-179.3463 365.0967,-159.7443 376.3022,-144.154"/>
<polygon fill="#000000" stroke="#000000" points="379.2093,-146.1062 382.2037,-135.9433 373.5252,-142.0207 379.2093,-146.1062"/>
<text text-anchor="middle" x="372.1662" y="-158.2" font-family="Times,serif" font-size="14.00" fill="#000000">A</text>
</g>
<!-- 9 -->
<g id="node9" class="node">
<title>9</title>
<polygon fill="none" stroke="#000000" points="341.6627,-135.8019 268.5631,-135.8019 268.5631,-94.5981 341.6627,-94.5981 341.6627,-135.8019"/>
<text text-anchor="middle" x="305.1129" y="-119.4" font-family="Times,serif" font-size="14.00" fill="#000000">&#45;State 9&#45;</text>
<text text-anchor="middle" x="305.1129" y="-102.6" font-family="Times,serif" font-size="14.00" fill="#000000">S→aB.e, $</text>
</g>
<!-- 3&#45;&gt;9 -->
<g id="edge12" class="edge">
<title>3&#45;&gt;9</title>
<path fill="none" stroke="#000000" d="M305.1129,-196.9891C305.1129,-180.1631 305.1129,-161.5551 305.1129,-146.3445"/>
<polygon fill="#000000" stroke="#000000" points="308.613,-145.9433 305.1129,-135.9433 301.613,-145.9433 308.613,-145.9433"/>
<text text-anchor="middle" x="309.7812" y="-158.2" font-family="Times,serif" font-size="14.00" fill="#000000">B</text>
</g>
<!-- 4&#45;&gt;5 -->
<g id="edge6" class="edge">
<title>4&#45;&gt;5</title>
<path fill="none" stroke="#000000" d="M222.2556,-289.3157C225.8967,-305.8703 229.9658,-324.371 233.4678,-340.2938"/>
<polygon fill="#000000" stroke="#000000" points="230.1107,-341.3241 235.6771,-350.3388 236.9473,-339.8204 230.1107,-341.3241"/>
<text text-anchor="middle" x="234.2202" y="-319.8" font-family="Times,serif" font-size="14.00" fill="#000000">c</text>
</g>
<!-- 11 -->
<g id="node11" class="node">
<title>11</title>
<polygon fill="none" stroke="#000000" points="250.7168,-135.8019 175.509,-135.8019 175.509,-94.5981 250.7168,-94.5981 250.7168,-135.8019"/>
<text text-anchor="middle" x="213.1129" y="-119.4" font-family="Times,serif" font-size="14.00" fill="#000000">&#45;State 11&#45;</text>
<text text-anchor="middle" x="213.1129" y="-102.6" font-family="Times,serif" font-size="14.00" fill="#000000">S→bA.e, $</text>
</g>
<!-- 4&#45;&gt;11 -->
<g id="edge7" class="edge">
<title>4&#45;&gt;11</title>
<path fill="none" stroke="#000000" d="M212.4739,-196.9891C212.6054,-180.1631 212.7508,-161.5551 212.8696,-146.3445"/>
<polygon fill="#000000" stroke="#000000" points="216.3725,-145.9704 212.9508,-135.9433 209.3727,-145.9156 216.3725,-145.9704"/>
<text text-anchor="middle" x="218.1662" y="-158.2" font-family="Times,serif" font-size="14.00" fill="#000000">A</text>
</g>
<!-- 13 -->
<g id="node13" class="node">
<title>13</title>
<polygon fill="none" stroke="#000000" points="157.7322,-135.8019 82.4936,-135.8019 82.4936,-94.5981 157.7322,-94.5981 157.7322,-135.8019"/>
<text text-anchor="middle" x="120.1129" y="-119.4" font-family="Times,serif" font-size="14.00" fill="#000000">&#45;State 13&#45;</text>
<text text-anchor="middle" x="120.1129" y="-102.6" font-family="Times,serif" font-size="14.00" fill="#000000">S→bB.d, $</text>
</g>
<!-- 4&#45;&gt;13 -->
<g id="edge8" class="edge">
<title>4&#45;&gt;13</title>
<path fill="none" stroke="#000000" d="M178.8988,-196.9891C166.218,-179.3463 152.1291,-159.7443 140.9236,-144.154"/>
<polygon fill="#000000" stroke="#000000" points="143.7006,-142.0207 135.0221,-135.9433 138.0165,-146.1062 143.7006,-142.0207"/>
<text text-anchor="middle" x="162.7812" y="-158.2" font-family="Times,serif" font-size="14.00" fill="#000000">B</text>
</g>
<!-- 8 -->
<g id="node8" class="node">
<title>8</title>
<polygon fill="none" stroke="#000000" points="434.7168,-41.4019 359.509,-41.4019 359.509,-.1981 434.7168,-.1981 434.7168,-41.4019"/>
<text text-anchor="middle" x="397.1129" y="-25" font-family="Times,serif" font-size="14.00" fill="#000000">&#45;State 8&#45;</text>
<text text-anchor="middle" x="397.1129" y="-8.2" font-family="Times,serif" font-size="14.00" fill="#000000">S→aAd., $</text>
</g>
<!-- 7&#45;&gt;8 -->
<g id="edge13" class="edge">
<title>7&#45;&gt;8</title>
<path fill="none" stroke="#000000" d="M397.1129,-94.2496C397.1129,-81.7835 397.1129,-65.7355 397.1129,-51.8214"/>
<polygon fill="#000000" stroke="#000000" points="400.613,-51.6918 397.1129,-41.6919 393.613,-51.6919 400.613,-51.6918"/>
<text text-anchor="middle" x="400.6129" y="-63.8" font-family="Times,serif" font-size="14.00" fill="#000000">d</text>
</g>
<!-- 10 -->
<g id="node10" class="node">
<title>10</title>
<polygon fill="none" stroke="#000000" points="341.6627,-41.4019 268.5631,-41.4019 268.5631,-.1981 341.6627,-.1981 341.6627,-41.4019"/>
<text text-anchor="middle" x="305.1129" y="-25" font-family="Times,serif" font-size="14.00" fill="#000000">&#45;State 10&#45;</text>
<text text-anchor="middle" x="305.1129" y="-8.2" font-family="Times,serif" font-size="14.00" fill="#000000">S→aBe., $</text>
</g>
<!-- 9&#45;&gt;10 -->
<g id="edge14" class="edge">
<title>9&#45;&gt;10</title>
<path fill="none" stroke="#000000" d="M305.1129,-94.2496C305.1129,-81.7835 305.1129,-65.7355 305.1129,-51.8214"/>
<polygon fill="#000000" stroke="#000000" points="308.613,-51.6918 305.1129,-41.6919 301.613,-51.6919 308.613,-51.6918"/>
<text text-anchor="middle" x="308.2202" y="-63.8" font-family="Times,serif" font-size="14.00" fill="#000000">e</text>
</g>
<!-- 12 -->
<g id="node12" class="node">
<title>12</title>
<polygon fill="none" stroke="#000000" points="250.7168,-41.4019 175.509,-41.4019 175.509,-.1981 250.7168,-.1981 250.7168,-41.4019"/>
<text text-anchor="middle" x="213.1129" y="-25" font-family="Times,serif" font-size="14.00" fill="#000000">&#45;State 12&#45;</text>
<text text-anchor="middle" x="213.1129" y="-8.2" font-family="Times,serif" font-size="14.00" fill="#000000">S→bAe., $</text>
</g>
<!-- 11&#45;&gt;12 -->
<g id="edge9" class="edge">
<title>11&#45;&gt;12</title>
<path fill="none" stroke="#000000" d="M213.1129,-94.2496C213.1129,-81.7835 213.1129,-65.7355 213.1129,-51.8214"/>
<polygon fill="#000000" stroke="#000000" points="216.613,-51.6918 213.1129,-41.6919 209.613,-51.6919 216.613,-51.6918"/>
<text text-anchor="middle" x="216.2202" y="-63.8" font-family="Times,serif" font-size="14.00" fill="#000000">e</text>
</g>
<!-- 14 -->
<g id="node14" class="node">
<title>14</title>
<polygon fill="none" stroke="#000000" points="157.7322,-41.4019 82.4936,-41.4019 82.4936,-.1981 157.7322,-.1981 157.7322,-41.4019"/>
<text text-anchor="middle" x="120.1129" y="-25" font-family="Times,serif" font-size="14.00" fill="#000000">&#45;State 14&#45;</text>
<text text-anchor="middle" x="120.1129" y="-8.2" font-family="Times,serif" font-size="14.00" fill="#000000">S→bBd., $</text>
</g>
<!-- 13&#45;&gt;14 -->
<g id="edge10" class="edge">
<title>13&#45;&gt;14</title>
<path fill="none" stroke="#000000" d="M120.1129,-94.2496C120.1129,-81.7835 120.1129,-65.7355 120.1129,-51.8214"/>
<polygon fill="#000000" stroke="#000000" points="123.613,-51.6918 120.1129,-41.6919 116.613,-51.6919 123.613,-51.6918"/>
<text text-anchor="middle" x="123.6129" y="-63.8" font-family="Times,serif" font-size="14.00" fill="#000000">d</text>
</g>
</g>
</svg>
