<?xml version="1.0" encoding="UTF-8" standalone="no"?>
<!DOCTYPE svg PUBLIC "-//W3C//DTD SVG 1.1//EN"
 "http://www.w3.org/Graphics/SVG/1.1/DTD/svg11.dtd">
<!-- Generated by graphviz version 2.40.1 (20161225.0304)
 -->
<!-- Title: G Pages: 1 -->
<svg width="185pt" height="561pt"
 viewBox="0.00 0.00 185.16 561.00" xmlns="http://www.w3.org/2000/svg" xmlns:xlink="http://www.w3.org/1999/xlink">
<g id="graph0" class="graph" transform="scale(1 1) rotate(0) translate(4 557)">
<title>G</title>
<polygon fill="#ffffff" stroke="transparent" points="-4,4 -4,-557 181.1606,-557 181.1606,4 -4,4"/>
<!-- 0 -->
<!-- 1 -->
<g id="node2" class="node">
<title>1</title>
<polygon fill="none" stroke="#000000" points="130,-480 76,-480 76,-444 130,-444 130,-480"/>
<text text-anchor="middle" x="103" y="-457.8" font-family="Times,serif" font-size="14.00" fill="#000000">S&#39;→.S</text>
</g>
<!-- 0&#45;&gt;1 -->
<g id="edge1" class="edge">
<title>0&#45;&gt;1</title>
<path fill="none" stroke="#000000" d="M103,-516.9551C103,-508.8828 103,-499.1764 103,-490.1817"/>
<polygon fill="#000000" stroke="#000000" points="106.5001,-490.0903 103,-480.0904 99.5001,-490.0904 106.5001,-490.0903"/>
</g>
<!-- 2 -->
<g id="node3" class="node">
<title>2</title>
<polygon fill="none" stroke="#000000" points="54,-391.2 0,-391.2 0,-355.2 54,-355.2 54,-391.2"/>
<text text-anchor="middle" x="27" y="-369" font-family="Times,serif" font-size="14.00" fill="#000000">S&#39;→S.</text>
</g>
<!-- 1&#45;&gt;2 -->
<g id="edge2" class="edge">
<title>1&#45;&gt;2</title>
<path fill="none" stroke="#000000" d="M87.2528,-443.6006C76.2765,-430.7757 61.4758,-413.4822 49.2906,-399.2448"/>
<polygon fill="#000000" stroke="#000000" points="51.6284,-396.5936 42.467,-391.272 46.3103,-401.1452 51.6284,-396.5936"/>
<text text-anchor="middle" x="74.8913" y="-413.4" font-family="Times,serif" font-size="14.00" fill="#000000">S</text>
</g>
<!-- 3 -->
<g id="node4" class="node">
<title>3</title>
<polygon fill="none" stroke="#000000" points="134.1699,-391.2 71.8301,-391.2 71.8301,-355.2 134.1699,-355.2 134.1699,-391.2"/>
<text text-anchor="middle" x="103" y="-369" font-family="Times,serif" font-size="14.00" fill="#000000">S→.(S)S</text>
</g>
<!-- 1&#45;&gt;3 -->
<g id="edge3" class="edge">
<title>1&#45;&gt;3</title>
<path fill="none" stroke="#000000" d="M103,-443.6006C103,-431.4949 103,-415.4076 103,-401.6674"/>
<polygon fill="#000000" stroke="#000000" points="106.5001,-401.272 103,-391.272 99.5001,-401.2721 106.5001,-401.272"/>
<text text-anchor="middle" x="107.0803" y="-413.4" font-family="Times,serif" font-size="14.00" fill="#000000">ϵ</text>
</g>
<!-- 8 -->
<g id="node9" class="node">
<title>8</title>
<polygon fill="none" stroke="#000000" points="161,-36 107,-36 107,0 161,0 161,-36"/>
<text text-anchor="middle" x="134" y="-13.8" font-family="Times,serif" font-size="14.00" fill="#000000">S→.</text>
</g>
<!-- 1&#45;&gt;8 -->
<g id="edge4" class="edge">
<title>1&#45;&gt;8</title>
<path fill="none" stroke="#000000" d="M127.576,-443.7538C146.3407,-427.5476 169,-402.0128 169,-373.2 169,-373.2 169,-373.2 169,-106.8 169,-84.9885 159.7474,-62.131 150.7568,-45.0692"/>
<polygon fill="#000000" stroke="#000000" points="153.7635,-43.2741 145.8494,-36.2301 147.6434,-46.672 153.7635,-43.2741"/>
<text text-anchor="middle" x="173.0803" y="-235.8" font-family="Times,serif" font-size="14.00" fill="#000000">ϵ</text>
</g>
<!-- 5 -->
<g id="node6" class="node">
<title>5</title>
<polygon fill="none" stroke="#000000" points="126.1699,-302.4 63.8301,-302.4 63.8301,-266.4 126.1699,-266.4 126.1699,-302.4"/>
<text text-anchor="middle" x="95" y="-280.2" font-family="Times,serif" font-size="14.00" fill="#000000">S→(.S)S</text>
</g>
<!-- 3&#45;&gt;5 -->
<g id="edge5" class="edge">
<title>3&#45;&gt;5</title>
<path fill="none" stroke="#000000" d="M101.3424,-354.8006C100.241,-342.575 98.7738,-326.2887 97.5279,-312.4599"/>
<polygon fill="#000000" stroke="#000000" points="101.0114,-312.1176 96.6281,-302.472 94.0396,-312.7458 101.0114,-312.1176"/>
<text text-anchor="middle" x="101.3303" y="-324.6" font-family="Times,serif" font-size="14.00" fill="#000000">(</text>
</g>
<!-- 4 -->
<g id="node5" class="node">
<title>4</title>
<polygon fill="none" stroke="#000000" points="89.1699,-36 26.8301,-36 26.8301,0 89.1699,0 89.1699,-36"/>
<text text-anchor="middle" x="58" y="-13.8" font-family="Times,serif" font-size="14.00" fill="#000000">S→(S)S.</text>
</g>
<!-- 5&#45;&gt;3 -->
<g id="edge6" class="edge">
<title>5&#45;&gt;3</title>
<path fill="none" stroke="#000000" d="M88.3119,-302.5733C85.4324,-312.7968 83.2536,-325.7662 85.8394,-337.2 86.4837,-340.049 87.3817,-342.9367 88.4323,-345.7729"/>
<polygon fill="#000000" stroke="#000000" points="85.2737,-347.2876 92.4449,-355.0866 91.7025,-344.5178 85.2737,-347.2876"/>
<text text-anchor="middle" x="89.0803" y="-324.6" font-family="Times,serif" font-size="14.00" fill="#000000">ϵ</text>
</g>
<!-- 6 -->
<g id="node7" class="node">
<title>6</title>
<polygon fill="none" stroke="#000000" points="103.1699,-213.6 40.8301,-213.6 40.8301,-177.6 103.1699,-177.6 103.1699,-213.6"/>
<text text-anchor="middle" x="72" y="-191.4" font-family="Times,serif" font-size="14.00" fill="#000000">S→(S.)S</text>
</g>
<!-- 5&#45;&gt;6 -->
<g id="edge8" class="edge">
<title>5&#45;&gt;6</title>
<path fill="none" stroke="#000000" d="M90.2344,-266.0006C87.0679,-253.775 82.8495,-237.4887 79.2678,-223.6599"/>
<polygon fill="#000000" stroke="#000000" points="82.5764,-222.475 76.6808,-213.672 75.8,-224.2302 82.5764,-222.475"/>
<text text-anchor="middle" x="88.8913" y="-235.8" font-family="Times,serif" font-size="14.00" fill="#000000">S</text>
</g>
<!-- 5&#45;&gt;8 -->
<g id="edge7" class="edge">
<title>5&#45;&gt;8</title>
<path fill="none" stroke="#000000" d="M100.0286,-266.1931C103.797,-251.9693 108.8298,-231.6533 112,-213.6 122.3551,-154.6304 128.8409,-84.7595 131.9035,-46.53"/>
<polygon fill="#000000" stroke="#000000" points="135.4228,-46.4165 132.7107,-36.1747 128.444,-45.8724 135.4228,-46.4165"/>
<text text-anchor="middle" x="126.0803" y="-147" font-family="Times,serif" font-size="14.00" fill="#000000">ϵ</text>
</g>
<!-- 7 -->
<g id="node8" class="node">
<title>7</title>
<polygon fill="none" stroke="#000000" points="93.1699,-124.8 30.8301,-124.8 30.8301,-88.8 93.1699,-88.8 93.1699,-124.8"/>
<text text-anchor="middle" x="62" y="-102.6" font-family="Times,serif" font-size="14.00" fill="#000000">S→(S).S</text>
</g>
<!-- 6&#45;&gt;7 -->
<g id="edge9" class="edge">
<title>6&#45;&gt;7</title>
<path fill="none" stroke="#000000" d="M69.928,-177.2006C68.5512,-164.975 66.7172,-148.6887 65.1599,-134.8599"/>
<polygon fill="#000000" stroke="#000000" points="68.6323,-134.4175 64.0351,-124.872 61.6763,-135.2009 68.6323,-134.4175"/>
<text text-anchor="middle" x="69.3303" y="-147" font-family="Times,serif" font-size="14.00" fill="#000000">)</text>
</g>
<!-- 7&#45;&gt;3 -->
<g id="edge11" class="edge">
<title>7&#45;&gt;3</title>
<path fill="none" stroke="#000000" d="M51.8458,-125.0707C44.7155,-138.9929 35.8,-158.8921 32,-177.6 28.8151,-193.2798 29.9779,-197.7283 32,-213.6 37.1524,-254.0421 38.2045,-265.2513 55,-302.4 62.0584,-318.012 72.5042,-333.9324 81.8503,-346.7123"/>
<polygon fill="#000000" stroke="#000000" points="79.2844,-349.1238 88.09,-355.0157 84.8806,-344.9186 79.2844,-349.1238"/>
<text text-anchor="middle" x="41.0803" y="-235.8" font-family="Times,serif" font-size="14.00" fill="#000000">ϵ</text>
</g>
<!-- 7&#45;&gt;4 -->
<g id="edge10" class="edge">
<title>7&#45;&gt;4</title>
<path fill="none" stroke="#000000" d="M61.1712,-88.4006C60.6259,-76.2949 59.9012,-60.2076 59.2823,-46.4674"/>
<polygon fill="#000000" stroke="#000000" points="62.7606,-45.9044 58.8141,-36.072 55.7677,-46.2194 62.7606,-45.9044"/>
<text text-anchor="middle" x="63.8913" y="-58.2" font-family="Times,serif" font-size="14.00" fill="#000000">S</text>
</g>
<!-- 7&#45;&gt;8 -->
<g id="edge12" class="edge">
<title>7&#45;&gt;8</title>
<path fill="none" stroke="#000000" d="M76.9184,-88.4006C87.317,-75.5757 101.3387,-58.2822 112.8826,-44.0448"/>
<polygon fill="#000000" stroke="#000000" points="115.7676,-46.0439 119.347,-36.072 110.3303,-41.6353 115.7676,-46.0439"/>
<text text-anchor="middle" x="108.0803" y="-58.2" font-family="Times,serif" font-size="14.00" fill="#000000">ϵ</text>
</g>
</g>
</svg>
